<?xml version="1.0" encoding="utf-8"?>
<!-- Generator: Adobe Illustrator 16.0.0, SVG Export Plug-In . SVG Version: 6.00 Build 0)  -->
<!DOCTYPE svg PUBLIC "-//W3C//DTD SVG 1.1//EN" "http://www.w3.org/Graphics/SVG/1.1/DTD/svg11.dtd">
<svg version="1.1" id="Layer_1" xmlns="http://www.w3.org/2000/svg" xmlns:xlink="http://www.w3.org/1999/xlink" x="0px" y="0px"
	 width="200px" height="200px" viewBox="0 0 200 200" enable-background="new 0 0 200 200" xml:space="preserve">
<g>
	<circle fill="#E5E6E7" cx="100" cy="100" r="100"/>
</g>
<g>
	<g>
		<g>
			<ellipse fill="#F29320" cx="71.864" cy="121.702" rx="10.019" ry="8.974"/>
			
				<ellipse fill="none" stroke="#6C6B6B" stroke-width="2" stroke-miterlimit="10" cx="71.864" cy="121.702" rx="10.019" ry="8.974"/>
		</g>
		<g>
			<g>
				<g>
					<path fill="#6D6B6B" d="M146.7,90.393l-44.183-44.19c-2.604-2.6-6.82-2.567-9.391-0.004c-2.586,2.594-2.586,6.804,0,9.394
						l44.187,44.186c2.59,2.589,6.799,2.589,9.387,0C149.297,97.183,149.297,92.989,146.7,90.393z"/>
				</g>
			</g>
			<g>
				<g>
					<path fill="#6D6B6B" d="M89.848,61.701l-0.333,1.667c-2.343,11.718-8.036,22.85-15.736,31.874l24.04,24.038
						c9.021-7.698,20-13.545,31.716-15.89l1.672-0.333L89.848,61.701z"/>
				</g>
			</g>
			<g>
				<g>
					<path fill="#6D6B6B" d="M69.372,100.219l-16.43,16.426c-3.882,3.883-3.899,10.185,0,14.084l9.387,9.387
						c3.882,3.882,10.185,3.896,14.082,0l16.429-16.429L69.372,100.219z M71.718,126.036c-1.296,1.295-3.396,1.295-4.694,0
						c-1.295-1.298-1.295-3.398,0-4.694l4.694-4.692c1.296-1.298,3.397-1.298,4.693,0c1.297,1.295,1.297,3.396,0,4.692
						L71.718,126.036z"/>
				</g>
			</g>
			<g>
				<g>
					<path fill="#6D6B6B" d="M106.696,141.88l4.516-4.514c3.898-3.899,3.886-10.2,0-14.079l-3.354-3.356
						c-1.853,1.244-3.624,2.598-5.345,4.042l4.005,4.01c1.293,1.286,1.302,3.381,0,4.691l-4.588,4.588l-6.746-6.534l-9.387,9.388
						l15.058,14.592c2.57,2.575,6.79,2.59,9.385-0.005c2.588-2.59,2.588-6.799,0-9.39L106.696,141.88z"/>
				</g>
			</g>
			<g>
				<g>
					<path fill="#6D6B6B" d="M120.105,43.357c-1.835,0-3.318,1.484-3.318,3.319v6.638c0,1.834,1.483,3.319,3.318,3.319
						c1.834,0,3.319-1.485,3.319-3.319v-6.638C123.425,44.842,121.939,43.357,120.105,43.357z"/>
				</g>
			</g>
			<g>
				<g>
					<path fill="#6D6B6B" d="M146.656,69.908h-6.638c-1.834,0-3.319,1.485-3.319,3.319c0,1.834,1.485,3.319,3.319,3.319h6.638
						c1.834,0,3.319-1.484,3.319-3.319C149.976,71.394,148.49,69.908,146.656,69.908z"/>
				</g>
			</g>
			<g>
				<g>
					<path fill="#6D6B6B" d="M142.364,50.967c-1.296-1.297-3.396-1.297-4.694,0l-6.638,6.638c-1.295,1.297-1.295,3.396,0,4.693
						c1.299,1.297,3.398,1.297,4.694,0l6.638-6.638C143.662,54.364,143.662,52.265,142.364,50.967z"/>
				</g>
			</g>
		</g>
	</g>
</g>
<g display="none">
	<circle display="inline" fill="#E5E6E7" cx="100" cy="100.001" r="100.001"/>
	<g display="inline">
		<path fill="#6D6B6B" d="M161.11,149.432c0,3.877-3.363,7.016-7.51,7.016H69.728c-4.15,0-7.512-3.139-7.512-7.016V71.878
			c0-3.874,3.361-7.015,7.512-7.015h83.873c4.146,0,7.51,3.141,7.51,7.015V149.432z"/>
		<rect x="69.257" y="81.203" fill="#F3F3F3" width="84.809" height="68.688"/>
		<path fill="#F3F3F3" d="M131.091,73.329c0,2.138-1.732,3.869-3.871,3.869c-2.133,0-3.867-1.731-3.867-3.869
			c0-2.137,1.734-3.87,3.867-3.87C129.358,69.459,131.091,71.192,131.091,73.329z"/>
		<circle fill="#F29320" stroke="#6C6B6B" stroke-width="2" stroke-miterlimit="10" cx="65.87" cy="70.536" r="26.98"/>
		<circle fill="#F3F3F3" cx="138.709" cy="73.329" r="3.87"/>
		<path fill="#F3F3F3" d="M154.065,73.329c0,2.138-1.73,3.869-3.869,3.869c-2.133,0-3.869-1.731-3.869-3.869
			c0-2.137,1.736-3.87,3.869-3.87C152.335,69.459,154.065,71.192,154.065,73.329z"/>
		<g>
			<g>
				<g>
					<path fill="#6D6B6B" d="M93.874,113.326c0.133,0.318,0.443,0.523,0.787,0.523h9.324v21.277c0,0.469,0.383,0.848,0.852,0.848
						h13.615c0.469,0,0.854-0.379,0.854-0.848V113.85h9.357c0.344,0,0.656-0.205,0.787-0.523c0.133-0.316,0.059-0.684-0.182-0.926
						l-16.98-17.033c-0.158-0.16-0.373-0.252-0.6-0.252s-0.445,0.092-0.604,0.249L94.06,112.396
						C93.815,112.641,93.741,113.008,93.874,113.326z"/>
				</g>
			</g>
		</g>
		<g>
			<g>
				<path fill="#6D6B6B" d="M73.116,73.65c-0.139-0.468-0.305-0.875-0.502-1.222c-0.197-0.346-0.48-0.685-0.848-1.016
					c-0.367-0.33-0.697-0.597-0.99-0.798c-0.293-0.203-0.695-0.429-1.207-0.68s-0.918-0.438-1.215-0.559
					c-0.299-0.123-0.73-0.291-1.295-0.505c-0.5-0.191-0.873-0.338-1.119-0.439c-0.244-0.102-0.566-0.243-0.967-0.432
					c-0.398-0.186-0.697-0.351-0.895-0.495s-0.408-0.32-0.631-0.527c-0.225-0.208-0.383-0.429-0.473-0.663s-0.135-0.49-0.135-0.768
					c0-0.724,0.318-1.315,0.959-1.774c0.639-0.457,1.465-0.687,2.477-0.687c0.447,0,0.902,0.062,1.367,0.185
					c0.463,0.122,0.859,0.261,1.189,0.415c0.332,0.155,0.643,0.324,0.936,0.512c0.293,0.186,0.5,0.327,0.625,0.423
					c0.121,0.096,0.199,0.16,0.23,0.192c0.139,0.106,0.281,0.144,0.432,0.111c0.16-0.011,0.281-0.096,0.367-0.256l1.295-2.332
					c0.127-0.214,0.102-0.417-0.08-0.608c-0.064-0.063-0.143-0.139-0.24-0.224c-0.096-0.084-0.305-0.24-0.621-0.463
					c-0.32-0.225-0.66-0.425-1.018-0.601c-0.355-0.175-0.82-0.354-1.389-0.534c-0.57-0.182-1.16-0.304-1.768-0.368v-2.813
					c0-0.149-0.047-0.271-0.143-0.367c-0.096-0.097-0.219-0.145-0.367-0.145h-2.16c-0.137,0-0.258,0.051-0.357,0.151
					c-0.102,0.102-0.152,0.223-0.152,0.36v2.877c-1.672,0.319-3.031,1.032-4.076,2.141s-1.566,2.397-1.566,3.868
					c0,0.437,0.047,0.853,0.137,1.247c0.092,0.393,0.201,0.748,0.336,1.063c0.133,0.313,0.32,0.624,0.566,0.927
					s0.477,0.564,0.695,0.783s0.504,0.443,0.855,0.68c0.352,0.234,0.652,0.423,0.902,0.567c0.25,0.142,0.584,0.308,0.998,0.495
					c0.418,0.186,0.744,0.326,0.984,0.422c0.24,0.097,0.568,0.23,0.984,0.4c0.574,0.225,1,0.397,1.277,0.521
					c0.277,0.121,0.629,0.293,1.055,0.511s0.738,0.418,0.936,0.601c0.197,0.181,0.375,0.404,0.535,0.669
					c0.16,0.267,0.24,0.551,0.24,0.848c0,0.842-0.328,1.492-0.984,1.949c-0.654,0.458-1.414,0.687-2.275,0.687
					c-0.395,0-0.789-0.041-1.184-0.126c-1.385-0.277-2.68-0.943-3.883-1.999l-0.031-0.032c-0.098-0.116-0.225-0.164-0.385-0.143
					c-0.172,0.021-0.293,0.086-0.367,0.191l-1.646,2.157c-0.16,0.214-0.15,0.432,0.031,0.656c0.053,0.063,0.146,0.159,0.281,0.286
					c0.133,0.13,0.381,0.328,0.744,0.601c0.359,0.272,0.754,0.527,1.18,0.769c0.428,0.239,0.967,0.475,1.623,0.709
					s1.336,0.4,2.039,0.495v2.798c0,0.139,0.049,0.259,0.15,0.359s0.221,0.154,0.359,0.154h2.158c0.148,0,0.271-0.05,0.367-0.146
					s0.145-0.217,0.145-0.368v-2.797c1.693-0.276,3.072-1.004,4.131-2.181c1.061-1.178,1.592-2.583,1.592-4.212
					C73.325,74.62,73.257,74.121,73.116,73.65z"/>
			</g>
		</g>
	</g>
</g>
</svg>
