<?xml version="1.0" encoding="utf-8"?>
<!-- Generator: Adobe Illustrator 16.0.0, SVG Export Plug-In . SVG Version: 6.00 Build 0)  -->
<!DOCTYPE svg PUBLIC "-//W3C//DTD SVG 1.1//EN" "http://www.w3.org/Graphics/SVG/1.1/DTD/svg11.dtd">
<svg version="1.1" id="Layer_1" xmlns="http://www.w3.org/2000/svg" xmlns:xlink="http://www.w3.org/1999/xlink" x="0px" y="0px"
	 width="200px" height="200px" viewBox="0 0 200 200" enable-background="new 0 0 200 200" xml:space="preserve">
<circle fill="#F2F2F2" cx="100" cy="100" r="100"/>
<circle fill="#777777" stroke="#595959" stroke-width="2" cx="148.053" cy="90.387" r="12.984"/>
<circle fill="#FFFFFF" stroke="#595959" stroke-width="2" cx="54.134" cy="90.472" r="14.839"/>
<polygon fill="#FFFFFF" stroke="#595959" stroke-width="2" points="104.382,74.454 151.764,54.894 151.764,125.206 104.382,105.478 
	"/>
<rect x="73.567" y="112.351" fill="#AAAAAA" stroke="#595959" stroke-width="2" width="13.784" height="15.006"/>
<path fill="#AAAAAA" stroke="#595959" stroke-width="2" d="M76.897,145.355H66.612c0,0-3.445-0.22-5.902-2.023
	c-2.698-1.98-2.698-7.081-2.698-7.081V115.85h18.885V145.355z"/>
<rect x="58.013" y="102.865" fill="#AAAAAA" stroke="#595959" stroke-width="2" width="48.898" height="15.007"/>
<rect x="54.135" y="73.188" fill="#AAAAAA" stroke="#595959" stroke-width="2" width="52.776" height="34.397"/>
<rect x="55.104" y="97.47" fill="#8C8C8C" width="50.774" height="9.104"/>
<polygon fill="#DDDDDD" points="150.771,124.279 107.796,106.321 107.796,97.47 150.771,115.632 "/>
</svg>
