<?xml version="1.0" encoding="UTF-8"?>
<!DOCTYPE svg PUBLIC "-//W3C//DTD SVG 1.1//EN" "http://www.w3.org/Graphics/SVG/1.1/DTD/svg11.dtd">
<!-- Creator: CorelDRAW X7 -->
<svg xmlns="http://www.w3.org/2000/svg" xml:space="preserve" width="2.09722in" height="2.09722in" version="1.1" style="shape-rendering:geometricPrecision; text-rendering:geometricPrecision; image-rendering:optimizeQuality; fill-rule:evenodd; clip-rule:evenodd"
viewBox="0 0 983 983"
 xmlns:xlink="http://www.w3.org/1999/xlink">
 <defs>
  <style type="text/css">
   <![CDATA[
    .fil1 {fill:#333333}
    .fil0 {fill:#E6E6E6}
    .fil2 {fill:white}
   ]]>
  </style>
 </defs>
 <g id="Layer_x0020_1">
  <metadata id="CorelCorpID_0Corel-Layer"/>
  <circle class="fil0" cx="492" cy="492" r="492"/>
  <g id="_414309512">
  </g>
  <g id="_414309680">
  </g>
  <g id="_414309944">
  </g>
  <g id="_414310472">
  </g>
  <g id="_414310280">
  </g>
  <g id="_414310136">
  </g>
  <g id="_414310304">
  </g>
  <g id="_414311624">
  </g>
  <g id="_414311480">
  </g>
  <g id="_414311144">
  </g>
  <g id="_414311768">
  </g>
  <g id="_414311840">
  </g>
  <g id="_414311648">
  </g>
  <g id="_414312104">
  </g>
  <g id="_414312680">
  </g>
  <g id="_414312800">
   <path class="fil1" d="M674 562c0,-18 13,-37 28,-45l38 -19c15,-8 28,0 28,17l0 125c0,17 -13,24 -28,17l-38 -19c-15,-8 -28,-28 -28,-45l0 -31zm-98 -125l-65 3 0 111c0,27 -19,45 -47,46 -27,1 -47,-22 -47,-49l0 -111 -76 0c-1,38 -31,68 -69,68 -6,0 -12,-1 -17,-3l0 163c0,0 0,1 0,1 0,28 23,51 51,51 0,0 0,0 0,0l270 0c0,0 0,0 0,0 29,0 52,-23 52,-51 0,0 0,-1 0,-1l0 -176c0,0 0,0 0,0 0,-28 -23,-52 -52,-52 0,0 0,0 0,0l0 0z"/>
   <circle class="fil1" cx="272" cy="436" r="63"/>
   <g>
    <g>
     <path class="fil2" d="M276 432l-8 0c-4,0 -8,-3 -8,-8 0,-4 4,-8 8,-8l16 0c2,0 4,-2 4,-4 0,-2 -2,-3 -4,-3l-8 0 0 -8c0,-2 -2,-4 -4,-4 -2,0 -3,2 -3,4l0 8 -1 0c-8,0 -15,7 -15,15 0,9 7,16 15,16l8 0c5,0 8,3 8,8 0,4 -3,8 -8,8l-15 0c-2,0 -4,2 -4,4 0,2 2,3 4,3l8 0 0 8c0,2 1,4 3,4 2,0 4,-2 4,-4l0 -8 0 0c9,0 16,-7 16,-15 0,-9 -7,-16 -16,-16z"/>
    </g>
   </g>
   <path class="fil1" d="M378 393c-4,4 -4,9 0,13 3,4 9,4 12,0l65 -65 0 215c0,5 4,9 9,9 5,0 10,-4 10,-9l0 -215 65 65c3,4 9,4 12,0 4,-4 4,-9 0,-13l-80 -80c-4,-4 -9,-4 -13,0l-80 80z"/>
  </g>
  <g id="_414313616">
  </g>
  <g id="_414314192">
  </g>
  <g id="_414314576">
  </g>
  <g id="_414314048">
  </g>
  <g id="_414315008">
  </g>
  <g id="_414315848">
  </g>
  <g id="_414315728">
  </g>
  <g id="_414316904">
  </g>
  <g id="_414316688">
  </g>
  <g id="_414316832">
  </g>
  <g id="_414317312">
  </g>
  <g id="_414317048">
  </g>
  <g id="_414317504">
  </g>
  <g id="_414317696">
  </g>
  <g id="_414318320">
  </g>
 </g>
</svg>
