<?xml version="1.0" encoding="utf-8"?>
<!-- Generator: Adobe Illustrator 16.0.0, SVG Export Plug-In . SVG Version: 6.00 Build 0)  -->
<!DOCTYPE svg PUBLIC "-//W3C//DTD SVG 1.1//EN" "http://www.w3.org/Graphics/SVG/1.1/DTD/svg11.dtd">
<svg version="1.1" id="Layer_1" xmlns="http://www.w3.org/2000/svg" xmlns:xlink="http://www.w3.org/1999/xlink" x="0px" y="0px"
	 width="760px" height="760px" viewBox="0 0 760 760" enable-background="new 0 0 760 760" xml:space="preserve">
<circle fill="#E5E6E7" cx="380" cy="344.589" r="148.5"/>
<g>
	<path fill="#323333" d="M447.178,398.93c0,4.26-3.697,7.711-8.256,7.711h-92.2c-4.562,0-8.257-3.451-8.257-7.711v-85.255
		c0-4.26,3.695-7.712,8.257-7.712h92.2c4.559,0,8.256,3.452,8.256,7.712V398.93z"/>
	<rect x="346.204" y="323.925" fill="#F3F3F3" width="93.232" height="75.509"/>
	<circle fill="#F3F3F3" cx="409.925" cy="315.269" r="4.254"/>
	<circle fill="#F29320" stroke="#313233" stroke-width="2" stroke-miterlimit="10" cx="342.481" cy="312.197" r="29.659"/>
	<circle fill="#F3F3F3" cx="422.554" cy="315.269" r="4.254"/>
	<circle fill="#F3F3F3" cx="435.183" cy="315.269" r="4.254"/>
	<g>
		<g>
			<path fill="#313233" d="M373.267,359.237c0.146,0.35,0.486,0.578,0.864,0.578h10.251v23.386c0,0.518,0.419,0.937,0.936,0.937
				h14.968c0.517,0,0.936-0.419,0.936-0.937v-23.386h10.29c0.378,0,0.719-0.228,0.864-0.576c0.145-0.35,0.065-0.752-0.201-1.02
				l-18.663-18.724c-0.177-0.176-0.414-0.275-0.663-0.275c-0.248,0-0.486,0.099-0.661,0.272l-18.718,18.725
				C373.201,358.485,373.12,358.887,373.267,359.237z"/>
		</g>
	</g>
	<g>
		<path fill="#313233" d="M350.447,315.623c-0.152-0.515-0.336-0.963-0.553-1.344s-0.527-0.752-0.932-1.116
			c-0.403-0.362-0.767-0.655-1.089-0.878s-0.765-0.472-1.327-0.747c-0.562-0.274-1.007-0.479-1.334-0.614
			c-0.328-0.135-0.803-0.319-1.424-0.554c-0.551-0.211-0.96-0.372-1.23-0.483c-0.269-0.111-0.623-0.269-1.063-0.474
			c-0.438-0.205-0.767-0.387-0.983-0.545s-0.448-0.352-0.694-0.579c-0.246-0.229-0.419-0.472-0.519-0.729
			c-0.099-0.258-0.148-0.539-0.148-0.844c0-0.796,0.351-1.446,1.054-1.95c0.703-0.503,1.61-0.755,2.724-0.755
			c0.491,0,0.992,0.067,1.502,0.202c0.509,0.135,0.945,0.287,1.309,0.456c0.363,0.171,0.706,0.357,1.028,0.563
			s0.55,0.36,0.686,0.466c0.134,0.105,0.22,0.176,0.254,0.211c0.152,0.117,0.311,0.158,0.475,0.123
			c0.176-0.012,0.311-0.105,0.404-0.281l1.423-2.564c0.141-0.234,0.112-0.457-0.087-0.668c-0.07-0.07-0.158-0.152-0.265-0.246
			c-0.105-0.094-0.334-0.264-0.685-0.51c-0.352-0.246-0.724-0.466-1.116-0.659c-0.392-0.192-0.902-0.389-1.528-0.588
			c-0.627-0.199-1.273-0.334-1.941-0.404v-3.092c0-0.164-0.053-0.299-0.158-0.404s-0.24-0.158-0.404-0.158h-2.372
			c-0.151,0-0.284,0.056-0.395,0.167c-0.111,0.111-0.167,0.243-0.167,0.396v3.162c-1.839,0.352-3.333,1.136-4.48,2.354
			c-1.147,1.219-1.722,2.636-1.722,4.252c0,0.48,0.05,0.938,0.149,1.37c0.1,0.434,0.223,0.823,0.369,1.169s0.354,0.685,0.623,1.019
			s0.524,0.621,0.765,0.861s0.554,0.488,0.94,0.746c0.386,0.258,0.717,0.466,0.992,0.624c0.275,0.157,0.642,0.34,1.098,0.544
			c0.457,0.205,0.817,0.36,1.081,0.466s0.624,0.252,1.081,0.439c0.632,0.246,1.101,0.436,1.405,0.57
			c0.305,0.136,0.691,0.322,1.159,0.563c0.469,0.24,0.812,0.46,1.028,0.659s0.413,0.445,0.589,0.737
			c0.176,0.293,0.264,0.604,0.264,0.932c0,0.926-0.36,1.64-1.081,2.143c-0.72,0.504-1.555,0.756-2.503,0.756
			c-0.434,0-0.867-0.047-1.301-0.14c-1.522-0.306-2.945-1.037-4.269-2.197l-0.035-0.035c-0.105-0.128-0.246-0.181-0.422-0.157
			c-0.188,0.023-0.322,0.094-0.404,0.211l-1.81,2.371c-0.176,0.234-0.164,0.475,0.035,0.721c0.059,0.07,0.161,0.176,0.308,0.316
			s0.419,0.36,0.817,0.659c0.397,0.299,0.831,0.58,1.3,0.844s1.063,0.523,1.783,0.781s1.468,0.439,2.24,0.544v3.075
			c0,0.152,0.056,0.284,0.167,0.396s0.243,0.167,0.395,0.167h2.373c0.164,0,0.299-0.053,0.404-0.158
			c0.104-0.105,0.157-0.24,0.157-0.404v-3.074c1.862-0.305,3.377-1.104,4.542-2.398c1.165-1.295,1.748-2.838,1.748-4.63
			C350.677,316.689,350.602,316.138,350.447,315.623z"/>
	</g>
</g>
</svg>
