<?xml version="1.0" encoding="UTF-8"?>
<!DOCTYPE svg PUBLIC "-//W3C//DTD SVG 1.1//EN" "http://www.w3.org/Graphics/SVG/1.1/DTD/svg11.dtd">
<!-- Creator: CorelDRAW X7 -->
<svg xmlns="http://www.w3.org/2000/svg" xml:space="preserve" width="2.09722in" height="2.09722in" version="1.1" style="shape-rendering:geometricPrecision; text-rendering:geometricPrecision; image-rendering:optimizeQuality; fill-rule:evenodd; clip-rule:evenodd"
viewBox="0 0 983 983"
 xmlns:xlink="http://www.w3.org/1999/xlink">
 <defs>
  <style type="text/css">
   <![CDATA[
    .str0 {stroke:#0635C7;stroke-width:15.6262}
    .fil1 {fill:none}
    .fil3 {fill:#0635C7}
    .fil2 {fill:#4D4D4D}
    .fil0 {fill:#E6E6E6}
   ]]>
  </style>
 </defs>
 <g id="Layer_x0020_1">
  <metadata id="CorelCorpID_0Corel-Layer"/>
  <circle class="fil0" cx="492" cy="492" r="492"/>
  <g id="_416939104">
   <path class="fil1 str0" d="M268 261l249 0c-1,5 -1,11 -1,16 0,81 66,147 147,147 8,0 16,-1 24,-2l0 337c0,38 -31,70 -70,70l-349 0c-38,0 -69,-32 -69,-70l0 -429c0,-38 31,-69 69,-69z"/>
   <g>
    <path class="fil2" d="M554 592c0,-11 9,-25 19,-30l26 -13c10,-5 19,0 19,12l0 84c0,12 -9,17 -19,12l-26 -13c-10,-5 -19,-19 -19,-31l0 -21zm-211 -134c-6,10 -2,18 10,18l84 0c12,0 16,-8 10,-18l-40 -60c-6,-10 -17,-10 -24,0l-40 60 0 0zm65 18l0 127c0,7 -6,13 -13,13 -6,0 -12,-6 -12,-13l0 -127 25 0zm79 32l-58 0 0 95c0,18 -15,33 -34,34 -18,0 -34,-16 -34,-34l0 -95 -58 0c0,0 0,0 0,0 -19,0 -35,15 -35,35 0,0 0,0 0,0l0 120c0,0 0,0 0,0 0,20 16,35 35,35 0,0 0,0 0,0l184 0c0,0 0,0 0,0 20,0 35,-15 35,-35 0,0 0,0 0,0l0 -120c0,0 0,0 0,0 0,-20 -15,-35 -35,-35 0,0 0,0 0,0l0 0z"/>
   </g>
   <g id="_416939416">
    <g>
     <path class="fil3" d="M748 192c-24,-24 -56,-37 -90,-37 -33,0 -65,13 -89,37 -24,23 -37,55 -37,89 0,34 13,65 37,89 24,24 56,37 89,37 34,0 66,-13 90,-37 23,-24 37,-55 37,-89 0,-34 -14,-66 -37,-89zm-90 200c-61,0 -111,-50 -111,-111 0,-62 50,-112 111,-112 62,0 112,50 112,112 0,61 -50,111 -112,111z"/>
    </g>
   </g>
   <g id="_416939656">
    <g>
     <path class="fil3" d="M666 273l-15 0c-9,0 -17,-7 -17,-16 0,-9 8,-16 17,-16l31 0c4,0 8,-4 8,-8 0,-4 -4,-7 -8,-7l-16 0 0 -16c0,-4 -3,-8 -8,-8 -4,0 -7,4 -7,8l0 16 0 0c-18,0 -32,14 -32,31 0,17 14,31 32,31l15 0c9,0 17,8 17,17 0,9 -8,16 -17,16l-31 0c-4,0 -8,3 -8,7 0,4 4,8 8,8l16 0 0 16c0,4 3,7 7,7 5,0 8,-3 8,-7l0 -16 0 0c18,0 32,-14 32,-31 0,-18 -14,-32 -32,-32z"/>
    </g>
   </g>
  </g>
  <g>
  </g>
  <g>
  </g>
  <g>
  </g>
  <g>
  </g>
  <g>
  </g>
  <g>
  </g>
  <g>
  </g>
  <g>
  </g>
  <g>
  </g>
  <g>
  </g>
  <g>
  </g>
  <g>
  </g>
  <g>
  </g>
  <g>
  </g>
  <g>
  </g>
 </g>
</svg>
