<?xml version="1.0" encoding="utf-8"?>
<!-- Generator: Adobe Illustrator 16.0.0, SVG Export Plug-In . SVG Version: 6.00 Build 0)  -->
<!DOCTYPE svg PUBLIC "-//W3C//DTD SVG 1.1//EN" "http://www.w3.org/Graphics/SVG/1.1/DTD/svg11.dtd">
<svg version="1.1" id="Layer_1" xmlns="http://www.w3.org/2000/svg" xmlns:xlink="http://www.w3.org/1999/xlink" x="0px" y="0px"
	 width="200px" height="200px" viewBox="0 0 200 200" enable-background="new 0 0 200 200" xml:space="preserve">
<circle fill="#E5E6E7" cx="100" cy="100" r="100"/>
<g display="none">
	<g display="inline">
		<g>
			<ellipse fill="#F29320" cx="71.864" cy="121.702" rx="10.019" ry="8.974"/>
			
				<ellipse fill="none" stroke="#6C6B6B" stroke-width="2" stroke-miterlimit="10" cx="71.864" cy="121.702" rx="10.019" ry="8.974"/>
		</g>
		<g>
			<g>
				<g>
					<path fill="#6D6B6B" d="M146.7,90.393l-44.183-44.19c-2.604-2.6-6.82-2.567-9.391-0.004c-2.586,2.594-2.586,6.804,0,9.394
						l44.187,44.186c2.59,2.589,6.799,2.589,9.387,0C149.297,97.183,149.297,92.989,146.7,90.393z"/>
				</g>
			</g>
			<g>
				<g>
					<path fill="#6D6B6B" d="M89.848,61.701l-0.333,1.667c-2.343,11.718-8.036,22.85-15.736,31.874l24.04,24.038
						c9.021-7.698,20-13.545,31.716-15.89l1.672-0.333L89.848,61.701z"/>
				</g>
			</g>
			<g>
				<g>
					<path fill="#6D6B6B" d="M69.372,100.219l-16.43,16.426c-3.882,3.883-3.899,10.185,0,14.084l9.387,9.387
						c3.882,3.882,10.185,3.896,14.082,0l16.429-16.429L69.372,100.219z M71.718,126.036c-1.296,1.295-3.396,1.295-4.694,0
						c-1.295-1.298-1.295-3.398,0-4.694l4.694-4.692c1.296-1.298,3.397-1.298,4.693,0c1.297,1.295,1.297,3.396,0,4.692
						L71.718,126.036z"/>
				</g>
			</g>
			<g>
				<g>
					<path fill="#6D6B6B" d="M106.696,141.88l4.516-4.514c3.898-3.899,3.886-10.2,0-14.079l-3.354-3.356
						c-1.853,1.244-3.624,2.598-5.345,4.042l4.005,4.01c1.293,1.286,1.302,3.381,0,4.691l-4.588,4.588l-6.746-6.534l-9.387,9.388
						l15.058,14.592c2.57,2.575,6.79,2.59,9.385-0.005c2.588-2.59,2.588-6.799,0-9.39L106.696,141.88z"/>
				</g>
			</g>
			<g>
				<g>
					<path fill="#6D6B6B" d="M120.105,43.357c-1.835,0-3.318,1.484-3.318,3.319v6.638c0,1.834,1.483,3.319,3.318,3.319
						c1.834,0,3.319-1.485,3.319-3.319v-6.638C123.425,44.842,121.939,43.357,120.105,43.357z"/>
				</g>
			</g>
			<g>
				<g>
					<path fill="#6D6B6B" d="M146.656,69.908h-6.638c-1.834,0-3.319,1.485-3.319,3.319c0,1.834,1.485,3.319,3.319,3.319h6.638
						c1.834,0,3.319-1.484,3.319-3.319C149.976,71.394,148.49,69.908,146.656,69.908z"/>
				</g>
			</g>
			<g>
				<g>
					<path fill="#6D6B6B" d="M142.364,50.967c-1.296-1.297-3.396-1.297-4.694,0l-6.638,6.638c-1.295,1.297-1.295,3.396,0,4.693
						c1.299,1.297,3.398,1.297,4.694,0l6.638-6.638C143.662,54.364,143.662,52.265,142.364,50.967z"/>
				</g>
			</g>
		</g>
	</g>
</g>
<g>
	<g>
		<path fill="#6D6B6B" d="M157.862,146.805c0,3.671-3.185,6.643-7.11,6.643H71.336c-3.93,0-7.112-2.972-7.112-6.643V73.373
			c0-3.668,3.183-6.642,7.112-6.642h79.416c3.926,0,7.11,2.974,7.11,6.642V146.805z"/>
		<rect x="70.891" y="82.202" fill="#F3F3F3" width="80.302" height="65.037"/>
		<path fill="#F3F3F3" d="M129.438,74.747c0,2.024-1.641,3.664-3.665,3.664c-2.02,0-3.662-1.64-3.662-3.664
			c0-2.023,1.643-3.665,3.662-3.665C127.798,71.082,129.438,72.724,129.438,74.747z"/>
		<circle fill="#ABABAB" stroke="#6C6B6B" stroke-width="2" stroke-miterlimit="10" cx="67.684" cy="72.102" r="25.546"/>
		<circle fill="#F3F3F3" cx="136.652" cy="74.747" r="3.665"/>
		<path fill="#F3F3F3" d="M151.192,74.747c0,2.024-1.639,3.664-3.664,3.664c-2.02,0-3.663-1.64-3.663-3.664
			c0-2.023,1.644-3.665,3.663-3.665C149.554,71.082,151.192,72.724,151.192,74.747z"/>
		<g>
			<g>
				<g>
					<path fill="#6D6B6B" d="M94.2,112.618c0.125,0.301,0.42,0.495,0.745,0.495h8.829v20.146c0,0.444,0.362,0.803,0.807,0.803
						h12.892c0.443,0,0.808-0.358,0.808-0.803v-20.146h8.86c0.325,0,0.621-0.194,0.745-0.495c0.126-0.3,0.056-0.647-0.172-0.877
						l-16.078-16.128c-0.149-0.151-0.353-0.238-0.567-0.238s-0.422,0.087-0.571,0.236l-16.121,16.126
						C94.144,111.969,94.074,112.316,94.2,112.618z"/>
				</g>
			</g>
		</g>
		<g>
			<g>
				<path fill="#121215" d="M74.545,75.051c-0.131-0.443-0.289-0.829-0.475-1.157c-0.187-0.327-0.455-0.648-0.803-0.961
					c-0.348-0.313-0.66-0.565-0.938-0.756c-0.277-0.192-0.658-0.406-1.143-0.644c-0.484-0.237-0.869-0.414-1.15-0.529
					c-0.283-0.116-0.691-0.275-1.226-0.478c-0.473-0.181-0.827-0.32-1.06-0.416c-0.231-0.096-0.536-0.23-0.916-0.409
					c-0.377-0.176-0.66-0.332-0.847-0.469c-0.187-0.137-0.387-0.303-0.598-0.5c-0.212-0.197-0.362-0.406-0.447-0.628
					c-0.085-0.222-0.127-0.464-0.127-0.727c0-0.685,0.301-1.246,0.908-1.68c0.605-0.433,1.387-0.65,2.345-0.65
					c0.423,0,0.854,0.058,1.294,0.175c0.438,0.115,0.813,0.247,1.126,0.393c0.314,0.147,0.608,0.307,0.886,0.484
					c0.277,0.176,0.473,0.31,0.592,0.4c0.114,0.09,0.188,0.151,0.218,0.182c0.131,0.101,0.267,0.136,0.409,0.105
					c0.152-0.01,0.267-0.091,0.348-0.242l1.227-2.208c0.12-0.203,0.096-0.395-0.076-0.576c-0.061-0.06-0.135-0.131-0.228-0.212
					c-0.09-0.08-0.288-0.228-0.588-0.438c-0.303-0.212-0.625-0.402-0.963-0.568c-0.337-0.166-0.777-0.335-1.315-0.506
					c-0.54-0.172-1.099-0.288-1.674-0.349v-2.663c0-0.142-0.044-0.257-0.135-0.348c-0.091-0.091-0.207-0.137-0.348-0.137h-2.045
					c-0.129,0-0.244,0.048-0.338,0.143c-0.096,0.096-0.145,0.211-0.145,0.341v2.724c-1.583,0.302-2.87,0.978-3.859,2.027
					s-1.483,2.27-1.483,3.663c0,0.414,0.044,0.807,0.129,1.181c0.087,0.372,0.19,0.708,0.318,1.006
					c0.126,0.297,0.303,0.591,0.537,0.877c0.233,0.287,0.451,0.534,0.658,0.742c0.207,0.207,0.477,0.419,0.81,0.644
					c0.333,0.222,0.618,0.4,0.854,0.537c0.237,0.134,0.553,0.291,0.945,0.469c0.396,0.176,0.705,0.309,0.932,0.399
					c0.228,0.091,0.538,0.218,0.932,0.379c0.543,0.213,0.947,0.376,1.209,0.493c0.262,0.115,0.595,0.277,0.999,0.483
					c0.403,0.206,0.699,0.396,0.886,0.569c0.187,0.171,0.355,0.383,0.507,0.633c0.151,0.252,0.228,0.521,0.228,0.803
					c0,0.797-0.311,1.413-0.932,1.846c-0.62,0.434-1.339,0.65-2.155,0.65c-0.374,0-0.747-0.039-1.121-0.12
					c-1.311-0.262-2.537-0.893-3.676-1.893l-0.03-0.03c-0.092-0.11-0.212-0.156-0.364-0.135c-0.163,0.021-0.277,0.082-0.348,0.181
					l-1.559,2.042c-0.151,0.203-0.142,0.409,0.03,0.622c0.05,0.059,0.139,0.151,0.266,0.271c0.126,0.123,0.361,0.311,0.705,0.569
					c0.34,0.258,0.714,0.499,1.117,0.728c0.405,0.227,0.916,0.449,1.537,0.671c0.622,0.222,1.265,0.379,1.931,0.469v2.649
					c0,0.131,0.046,0.245,0.143,0.34s0.209,0.146,0.34,0.146h2.043c0.141,0,0.257-0.047,0.348-0.138
					c0.09-0.09,0.137-0.205,0.137-0.349v-2.648c1.604-0.262,2.909-0.951,3.911-2.065c1.004-1.115,1.507-2.446,1.507-3.988
					C74.743,75.969,74.678,75.497,74.545,75.051z"/>
			</g>
		</g>
	</g>
</g>
</svg>
