<?xml version="1.0" encoding="UTF-8" standalone="no"?>
<!DOCTYPE svg PUBLIC "-//W3C//DTD SVG 1.1//EN" "http://www.w3.org/Graphics/SVG/1.1/DTD/svg11.dtd">
<svg version="1.1" xmlns="http://www.w3.org/2000/svg" xmlns:xlink="http://www.w3.org/1999/xlink" preserveAspectRatio="xMidYMid meet" viewBox="207.92287542936214 79.09321175278612 199.99999999999994 200.00000000000003" width="200" height="200"><defs><path d="M407.92 179.09C407.92 234.28 363.11 279.09 307.92 279.09C252.73 279.09 207.92 234.28 207.92 179.09C207.92 123.9 252.73 79.09 307.92 79.09C363.11 79.09 407.92 123.9 407.92 179.09Z" id="aXy7Sl9yt"></path><path d="M347.26 147.93C351.32 147.93 354.61 151.22 354.61 155.28C354.61 169.95 354.61 206.64 354.61 221.32C354.61 225.36 351.33 228.64 347.29 228.64C340 228.64 333.36 228.64 310.84 228.64C288.32 228.64 279.64 228.64 271.84 228.64C267.79 228.64 264.51 225.36 264.51 221.32C264.51 206.64 264.51 169.95 264.51 155.28C264.51 151.22 267.8 147.93 271.86 147.93C288.41 147.93 330.71 147.93 347.26 147.93Z" id="a1HRBKR60Y"></path><path d="M346.91 162.76C348.33 162.76 349.47 163.91 349.47 165.33C349.47 176.98 349.47 209.36 349.47 221.01C349.47 222.42 348.33 223.57 346.91 223.57C331.47 223.57 287.73 223.57 272.29 223.57C270.87 223.57 269.72 222.42 269.72 221.01C269.72 209.36 269.72 176.98 269.72 165.33C269.72 163.91 270.87 162.76 272.29 162.76C287.73 162.76 331.47 162.76 346.91 162.76Z" id="asATJVQTG"></path><path d="M349.08 155.09C349.08 157.01 347.52 158.56 345.6 158.56C343.69 158.56 342.13 157.01 342.13 155.09C342.13 153.18 343.69 151.63 345.6 151.63C347.52 151.63 349.08 153.18 349.08 155.09Z" id="cnMskA0Rx"></path><path d="M339.51 155.09C339.51 157.01 337.96 158.56 336.04 158.56C334.12 158.56 332.56 157.01 332.56 155.09C332.56 153.18 334.12 151.63 336.04 151.63C337.96 151.63 339.51 153.18 339.51 155.09Z" id="b5fEoqeIG6"></path><path d="M330.1 196.19L309.53 182.63L288.95 196.19L302 196.19L302 210.56L317.09 210.56L317.09 196.19L330.1 196.19Z" id="d16w6ShKTq"></path><path d="M336.18 148.78C336.18 163.02 324.57 174.58 310.28 174.58C295.99 174.58 284.39 163.02 284.39 148.78C284.39 134.53 295.99 122.97 310.28 122.97C324.57 122.97 336.18 134.53 336.18 148.78Z" id="axa33VsmZ"></path><path d="M310.54 146.15C309.99 145.92 309.47 145.66 309.01 145.3C308.11 144.58 308.28 143.41 309.34 142.95C309.64 142.82 309.96 142.77 310.28 142.76C311.5 142.69 312.67 142.91 313.78 143.45C314.34 143.71 314.52 143.63 314.71 143.05C314.9 142.45 315.07 141.83 315.25 141.22C315.37 140.81 315.22 140.54 314.83 140.36C314.12 140.05 313.39 139.83 312.62 139.7C311.62 139.55 311.62 139.54 311.61 138.54C311.61 137.12 311.61 137.12 310.18 137.12C309.98 137.12 309.77 137.12 309.56 137.12C308.9 137.14 308.78 137.26 308.77 137.93C308.76 138.23 308.77 138.53 308.76 138.83C308.76 139.72 308.75 139.7 307.9 140.01C305.83 140.76 304.56 142.16 304.42 144.41C304.3 146.39 305.34 147.73 306.98 148.71C307.99 149.31 309.1 149.67 310.17 150.14C310.59 150.32 310.99 150.53 311.34 150.82C312.36 151.67 312.18 153.08 310.96 153.61C310.3 153.89 309.61 153.96 308.91 153.88C307.81 153.74 306.77 153.46 305.78 152.95C305.21 152.65 305.04 152.73 304.84 153.35C304.67 153.89 304.52 154.43 304.37 154.97C304.17 155.7 304.24 155.87 304.94 156.21C305.83 156.64 306.79 156.86 307.76 157.02C308.52 157.14 308.54 157.17 308.55 157.96C308.55 158.31 308.55 158.67 308.56 159.03C308.56 159.48 308.78 159.74 309.24 159.75C309.77 159.76 310.3 159.76 310.82 159.74C311.26 159.73 311.48 159.5 311.48 159.06C311.48 158.58 311.5 158.09 311.48 157.6C311.46 157.11 311.67 156.85 312.15 156.72C313.25 156.42 314.19 155.83 314.91 154.96C316.92 152.52 316.16 148.97 313.31 147.4C312.42 146.91 311.48 146.54 310.54 146.15Z" id="e6dcZnwMX"></path></defs><g><g><g><use xlink:href="#aXy7Sl9yt" opacity="1" fill="#f2f2f2" fill-opacity="1"></use></g><g><g><use xlink:href="#a1HRBKR60Y" opacity="1" fill="#7f7f7f" fill-opacity="1"></use><g><use xlink:href="#a1HRBKR60Y" opacity="1" fill-opacity="0" stroke="#595959" stroke-width="2" stroke-opacity="1"></use></g></g><g><use xlink:href="#asATJVQTG" opacity="1" fill="#f2f2f2" fill-opacity="1"></use><g><use xlink:href="#asATJVQTG" opacity="1" fill-opacity="0" stroke="#595959" stroke-width="2" stroke-opacity="1"></use></g></g><g><use xlink:href="#cnMskA0Rx" opacity="1" fill="#f2f2f2" fill-opacity="1"></use><g><use xlink:href="#cnMskA0Rx" opacity="1" fill-opacity="0" stroke="#595959" stroke-width="2" stroke-opacity="1"></use></g></g><g><use xlink:href="#b5fEoqeIG6" opacity="1" fill="#f2f2f2" fill-opacity="1"></use><g><use xlink:href="#b5fEoqeIG6" opacity="1" fill-opacity="0" stroke="#595959" stroke-width="2" stroke-opacity="1"></use></g></g><g><use xlink:href="#d16w6ShKTq" opacity="1" fill="#7f7f7f" fill-opacity="1"></use><g><use xlink:href="#d16w6ShKTq" opacity="1" fill-opacity="0" stroke="#595959" stroke-width="1" stroke-opacity="1"></use></g></g><g><use xlink:href="#axa33VsmZ" opacity="1" fill="#f2f2f2" fill-opacity="1"></use><g><use xlink:href="#axa33VsmZ" opacity="1" fill-opacity="0" stroke="#7f7f7f" stroke-width="4" stroke-opacity="1"></use></g></g><g><use xlink:href="#e6dcZnwMX" opacity="1" fill="#7f7f7f" fill-opacity="1"></use><g><use xlink:href="#e6dcZnwMX" opacity="1" fill-opacity="0" stroke="#000000" stroke-width="1" stroke-opacity="0"></use></g></g></g></g></g></svg>